# xmcd
#
# Track frame offsets: 
#        150
#        12900
#        30000
#        42037
#        58424
#        71099
#        82236
#        101061
#        112986
#        123411
#        137061
#        152061
#        164398
#        178048
#
# Disc length: 2625 seconds
#
# Revision: 2
# Processed by: cddbd v1.5.2PL0 Copyright (c) Steve Scherf et al.
# Submitted via: ExactAudioCopy v0.99pb1
#
DISCID=b90a3f0e
DTITLE=Various Artist - Best Of Country - CD2
DYEAR=2007
DGENRE=Country
TTITLE0=Johnny Cash - Ring Of Fire
TTITLE1=Lynn Anderson - Blue Bayou
TTITLE2=Kenny Rogers - Reuben James
TTITLE3=Billie Joe Spears - Blanket On The Ground
TTITLE4=Charlie Pride - Help Me Make It Through The Night
TTITLE5=Waylon Jennings - Big Mamou
TTITLE6=Marty Robbins - El Paso City
TTITLE7=Wanda Jackson - Sweet Dreams
TTITLE8=Loretta Lynn - You're Locking At Country
TTITLE9=Willy Nelson and Waylon Jennings - Good Hearted Woman
TTITLE10=Frankie Lane - Sixteen Tons
TTITLE11=Johnny Cash - Folsom Prison Blues
TTITLE12=Kenny Rogers - Ruby, Don't Take Your Love To Town
TTITLE13=John Denver - Rocky Mountain High
EXTD=
EXTT0=
EXTT1=
EXTT2=
EXTT3=
EXTT4=
EXTT5=
EXTT6=
EXTT7=
EXTT8=
EXTT9=
EXTT10=
EXTT11=
EXTT12=
EXTT13=
PLAYORDER=
